<svg xmlns="http://www.w3.org/2000/svg" viewBox="0 0 800 320" width="100%" height="100%">
  <defs>
    <linearGradient id="bgGrad3" x1="0%" y1="0%" x2="100%" y2="100%">
      <stop offset="0%" stop-color="#be123c" />
      <stop offset="60%" stop-color="#9f1239" />
      <stop offset="100%" stop-color="#4c0519" />
    </linearGradient>
  </defs>
  <rect width="800" height="320" fill="url(#bgGrad3)" />
  <circle cx="700" cy="70" r="140" fill="#f43f5e" opacity="0.08" />
  <circle cx="650" cy="240" r="170" fill="#fb7185" opacity="0.06" />
  <path d="M-40 260 Q 230 180, 480 260 T 840 210 L 840 360 L -40 360 Z" fill="#4c0519" opacity="0.4" />
  <g transform="translate(610, 75)" stroke="#fda4af" stroke-width="3" fill="none" opacity="0.85">
    <path d="M50 15 L85 30 L85 70 Q85 100 50 115 Q15 100 15 70 L15 30 Z" fill="#f43f5e" fill-opacity="0.25" />
    <path d="M50 40 L50 65 M50 80 L50 85" stroke-width="3.5" stroke-linecap="round" stroke="#ffffff" />
  </g>
  <g transform="translate(48, 80)">
    <rect x="0" y="0" width="110" height="28" rx="14" fill="#fb7185" fill-opacity="0.2" />
    <text x="55" y="18" font-family="'Outfit', sans-serif" font-size="12" font-weight="700" fill="#fecdd3" text-anchor="middle" letter-spacing="1">MODUL 03</text>
    <text x="0" y="65" font-family="'Outfit', sans-serif" font-size="28" font-weight="800" fill="#ffffff">Risiko Medis &amp;</text>
    <text x="0" y="98" font-family="'Outfit', sans-serif" font-size="28" font-weight="800" fill="#fda4af">Perlindungan Diri</text>
    <text x="0" y="132" font-family="'Outfit', sans-serif" font-size="14" font-weight="400" fill="#ffe4e6" opacity="0.9">Pencegahan IMS, HIV/AIDS, bahaya aborsi ilegal &amp; keamanan digital KBGO</text>
  </g>
</svg>
